<svg id="Layer_1" data-name="Layer 1" xmlns="http://www.w3.org/2000/svg" viewBox="0 0 287.36395 111.36238"><defs><style>.cls-1{fill:#384745;}.cls-2{fill:#ffc61c;}</style></defs><path class="cls-2" d="M121.58689,0H14.39255A14.43487,14.43487,0,0,0,0,14.39247V96.96991a14.43487,14.43487,0,0,0,14.39255,14.39247H121.58689a14.43487,14.43487,0,0,0,14.39255-14.39247V14.39247A14.43487,14.43487,0,0,0,121.58689,0ZM57.45811,80.98065,31.29766,96.18344A6.99993,6.99993,0,1,1,24.26348,84.079L50.42393,68.87626a6.99993,6.99993,0,1,1,7.03418,12.10439Zm10.2915-23.16221h-.03145A6.99967,6.99967,0,0,1,60.74893,50.788l.13125-30.13725a7.00056,7.00056,0,0,1,6.99931-6.96958h.03145a6.99991,6.99991,0,0,1,6.96924,7.03042l-.13125,30.13725A7.00056,7.00056,0,0,1,67.74961,57.81844Zm46.2875,35.81006a6.997,6.997,0,0,1-9.56211,2.56211L78.27627,81.06473a6.99994,6.99994,0,1,1,7-12.12421L111.475,84.06639A6.99956,6.99956,0,0,1,114.03711,93.6285Z"/></svg>