<svg id="Layer_1" data-name="Layer 1" xmlns="http://www.w3.org/2000/svg" viewBox="0 0 135 111.362"><defs><style>.cls-1{fill:#384745}</style></defs><path d="M121.587 0H14.393A14.435 14.435 0 0 0 0 14.392V96.97a14.435 14.435 0 0 0 14.393 14.392h107.194a14.435 14.435 0 0 0 14.392-14.392V14.392A14.435 14.435 0 0 0 121.587 0ZM57.458 80.98l-26.16 15.203a7 7 0 1 1-7.035-12.104l26.16-15.203a7 7 0 1 1 7.035 12.105ZM67.75 57.819h-.032a7 7 0 0 1-6.97-7.03l.132-30.137a7 7 0 0 1 7-6.97h.03a7 7 0 0 1 6.97 7.03L74.75 50.85a7 7 0 0 1-7 6.97Zm46.287 35.81a6.997 6.997 0 0 1-9.562 2.563L78.276 81.065a7 7 0 1 1 7-12.124l26.199 15.125a7 7 0 0 1 2.562 9.563Z" style="fill:#ffc61c"/></svg>